<svg xmlns="http://www.w3.org/2000/svg" viewBox="0 0 1024 1024" role="img" aria-label="Pantros app icon jar layer">
  <defs>
    <linearGradient id="glassFill" x1="242" y1="352" x2="788" y2="882" gradientUnits="userSpaceOnUse">
      <stop offset="0" stop-color="#ecfff0" stop-opacity=".72"/>
      <stop offset=".45" stop-color="#dff8dd" stop-opacity=".38"/>
      <stop offset="1" stop-color="#60b874" stop-opacity=".18"/>
    </linearGradient>
    <linearGradient id="glassEdge" x1="240" y1="590" x2="784" y2="590" gradientUnits="userSpaceOnUse">
      <stop offset="0" stop-color="#2e8d45"/>
      <stop offset=".08" stop-color="#8df1a2"/>
      <stop offset=".18" stop-color="#f1fff0"/>
      <stop offset=".5" stop-color="#c9f2c9"/>
      <stop offset=".82" stop-color="#f1fff0"/>
      <stop offset=".92" stop-color="#74d98b"/>
      <stop offset="1" stop-color="#25793c"/>
    </linearGradient>
    <linearGradient id="innerEdge" x1="278" y1="596" x2="746" y2="596" gradientUnits="userSpaceOnUse">
      <stop offset="0" stop-color="#bff6ca" stop-opacity=".95"/>
      <stop offset=".5" stop-color="#efffed" stop-opacity=".62"/>
      <stop offset="1" stop-color="#75cf87" stop-opacity=".9"/>
    </linearGradient>
    <radialGradient id="baseGlow" cx="512" cy="852" r="255" gradientUnits="userSpaceOnUse">
      <stop offset="0" stop-color="#d4ffcf" stop-opacity=".86"/>
      <stop offset=".48" stop-color="#75d681" stop-opacity=".3"/>
      <stop offset="1" stop-color="#196b34" stop-opacity=".12"/>
    </radialGradient>
    <linearGradient id="leftHighlight" x1="295" y1="372" x2="515" y2="798" gradientUnits="userSpaceOnUse">
      <stop offset="0" stop-color="#ffffff" stop-opacity=".72"/>
      <stop offset=".5" stop-color="#ffffff" stop-opacity=".25"/>
      <stop offset="1" stop-color="#ffffff" stop-opacity="0"/>
    </linearGradient>
  </defs>

  <path
    d="M321 300c0 43-18 55-42 79-28 28-39 72-39 123v248c0 91 66 143 154 143h236c88 0 154-52 154-143V502c0-51-11-95-39-123-24-24-42-36-42-79H321Z"
    fill="url(#glassFill)"
    stroke="url(#glassEdge)"
    stroke-width="30"
    stroke-linejoin="round"/>
  <path
    d="M346 318c0 39-16 54-38 76-26 26-34 63-34 112v229c0 77 49 116 126 116h224c77 0 126-39 126-116V506c0-49-8-86-34-112-22-22-38-37-38-76"
    fill="none"
    stroke="url(#innerEdge)"
    stroke-width="11"
    stroke-linecap="round"
    stroke-linejoin="round"/>
  <path
    d="M278 833c46 43 83 55 146 55h176c72 0 112-13 157-55-34 38-75 58-147 62H414c-64-3-101-19-136-62Z"
    fill="url(#baseGlow)"/>
  <path
    d="M336 355c-36 31-51 72-51 130v214c0 79 27 125 83 142-35-35-47-72-47-127V513c0-69 17-103 54-130 26-19 36-36 36-65h-58c0 15-5 27-17 37Z"
    fill="url(#leftHighlight)"/>
  <path
    d="M338 323c45 16 115 23 174 23s129-7 174-23"
    fill="none"
    stroke="#f3fff0"
    stroke-width="8"
    stroke-linecap="round"
    opacity=".72"/>
  <path
    d="M300 866c41 28 80 39 139 39h146c63 0 104-11 145-39"
    fill="none"
    stroke="#eaffdf"
    stroke-width="8"
    stroke-linecap="round"
    opacity=".72"/>
</svg>
